<svg preserveAspectRatio="none" width="100%" height="100%" overflow="visible" style="display: block;" viewBox="0 0 25.0614 23.9998" fill="none" xmlns="http://www.w3.org/2000/svg">
<g id="Group">
<path id="Vector" d="M14.5877 17.7998H10.4833C10.0339 17.7998 9.6694 18.1624 9.6694 18.6097V23.9992H15.4014V18.6097C15.4014 18.1624 15.0369 17.7998 14.5875 17.7998H14.5877Z" fill="var(--fill-0, #47CD89)"/>
<path id="Vector_2" d="M23.5171 5.4084L13.6161 0.265055C12.9357 -0.0883518 12.1246 -0.0883518 11.4442 0.265055L1.54369 5.4084C0.594773 5.90143 0 6.87829 0 7.94357V21.3492C0 22.8131 1.19231 23.9998 2.6631 23.9998H5.26759V8.76198C5.26759 8.31374 5.63258 7.95023 6.08316 7.95023H8.85469C9.30503 7.95023 9.67002 8.31351 9.67002 8.76175V13.3418C9.67002 13.7901 10.035 14.1536 10.4856 14.1536H14.5865C15.037 14.1536 15.4023 13.7901 15.4023 13.3416V8.76198C15.4023 8.31374 15.7672 7.95023 16.2178 7.95023H18.9894C19.4397 7.95023 19.8047 8.31351 19.8047 8.76175V23.9996H22.4394C23.8876 23.9996 25.0614 22.8312 25.0614 21.3898V7.94357C25.0614 6.87829 24.4664 5.90143 23.5177 5.4084H23.5171Z" fill="var(--fill-0, #47CD89)"/>
</g>
</svg>
