<svg preserveAspectRatio="none" width="100%" height="100%" overflow="visible" style="display: block;" viewBox="0 0 81.0693 15.6289" fill="none" xmlns="http://www.w3.org/2000/svg">
<g id="Group">
<path id="Vector" d="M8.81913 9.24392H3.31898C3.10696 9.24392 2.93508 9.41499 2.93508 9.62603V15.0592C2.93508 15.27 2.7632 15.4411 2.5514 15.4411H0.383876C0.172083 15.4411 0.000203116 15.27 0.000203116 15.0592V1.25861C0.000203116 1.04781 0.172083 0.876733 0.383876 0.876733H2.5514C2.7632 0.876733 2.93508 1.04781 2.93508 1.25861V6.48302C2.93508 6.69406 3.10696 6.86514 3.31898 6.86514H8.81913C9.03115 6.86514 9.20303 6.69406 9.20303 6.48302V1.25861C9.20303 1.04781 9.37491 0.876733 9.5867 0.876733H11.7542C11.966 0.876733 12.1379 1.04781 12.1379 1.25861V15.0594C12.1379 15.2702 11.966 15.4413 11.7542 15.4413H9.5867C9.37491 15.4413 9.20303 15.2702 9.20303 15.0594V9.62626C9.20303 9.41522 9.03115 9.24415 8.81913 9.24415V9.24392Z" fill="var(--fill-0, white)"/>
<path id="Vector_2" d="M18.9094 3.69366C20.4757 3.69366 21.6281 4.31115 22.3671 5.07721C22.5048 5.21981 22.7457 5.12612 22.7457 4.9284V4.20896C22.7457 4.02801 22.8931 3.8815 23.0747 3.8815H25.3726C25.5544 3.8815 25.7016 4.02824 25.7016 4.20896V15.1136C25.7016 15.2946 25.5541 15.4411 25.3726 15.4411H23.0747C22.8929 15.4411 22.7457 15.2943 22.7457 15.1136V14.3664C22.7457 14.1675 22.5023 14.0743 22.3655 14.2192C21.6175 15.0105 20.4379 15.6287 18.8884 15.6287C15.9536 15.6287 13.6054 13.229 13.6054 9.61914C13.6054 6.00929 15.9533 3.6932 18.9092 3.6932L18.9094 3.69366ZM19.6641 6.26005C18.0918 6.26005 16.6035 7.42866 16.6035 9.6196C16.6035 11.8105 18.0918 13.0625 19.6641 13.0625C21.2364 13.0625 22.7457 11.8523 22.7457 9.6614C22.7457 7.47046 21.2781 6.26028 19.6641 6.26028V6.26005Z" fill="var(--fill-0, white)"/>
<path id="Vector_3" d="M36.0371 9.05608C36.0371 7.19903 35.0097 6.19737 33.4586 6.19737C31.9076 6.19737 30.8382 7.19903 30.8382 9.05608V15.0585C30.8382 15.2698 30.6661 15.4411 30.4539 15.4411H28.2877C28.0755 15.4411 27.9034 15.2698 27.9034 15.0585V4.26407C27.9034 4.05281 28.0755 3.8815 28.2877 3.8815H30.4539C30.6661 3.8815 30.8382 4.05281 30.8382 4.26407V4.74883C30.8382 4.94241 31.0712 5.03955 31.2111 4.90476C31.9756 4.16694 33.0743 3.71456 34.3393 3.71456C37.0437 3.71456 38.9724 5.46736 38.9724 8.65974V15.0592C38.9724 15.2702 38.8005 15.4413 38.5885 15.4413H36.4212C36.2092 15.4413 36.0373 15.2702 36.0373 15.0592V9.05631L36.0371 9.05608Z" fill="var(--fill-0, white)"/>
<path id="Vector_4" d="M45.7672 3.69367C47.0825 3.69367 48.3512 4.2177 49.1877 5.0538C49.3257 5.19158 49.5617 5.09375 49.5617 4.89902V0.383037C49.5617 0.171544 49.7338 0.000236265 49.9463 0.000236265H52.154C52.3665 0.000236265 52.5386 0.171544 52.5386 0.383037V15.0583C52.5386 15.2698 52.3665 15.4411 52.154 15.4411H49.9463C49.7338 15.4411 49.5617 15.2698 49.5617 15.0583V14.3719C49.5617 14.1701 49.3132 14.0782 49.1769 14.2277C48.434 15.0431 47.274 15.6287 45.7462 15.6287C42.7903 15.6287 40.4424 13.229 40.4424 9.61916C40.4424 6.00931 42.7903 3.69322 45.7672 3.69322V3.69367ZM46.5009 6.26007C44.9286 6.26007 43.44 7.42868 43.44 9.61962C43.44 11.8106 44.9286 13.0625 46.5009 13.0625C48.0732 13.0625 49.5825 11.8524 49.5825 9.66141C49.5825 7.47047 48.1149 6.2603 46.5009 6.2603V6.26007Z" fill="var(--fill-0, white)"/>
<path id="Vector_5" d="M59.8945 15.6289C56.5402 15.6289 54.0038 13.2919 54.0038 9.66113C54.0038 6.03038 56.6242 3.69339 59.9785 3.69339C63.3328 3.69339 65.9532 6.00948 65.9532 9.66113C65.9532 13.3128 63.2698 15.6289 59.8945 15.6289ZM59.8945 13.0834C61.4458 13.0834 62.9344 11.9566 62.9344 9.66136C62.9344 7.36616 61.4878 6.23935 59.9365 6.23935C58.3852 6.23935 56.9807 7.34527 56.9807 9.66136C56.9807 11.9774 58.3222 13.0834 59.8948 13.0834H59.8945Z" fill="var(--fill-0, white)"/>
<path id="Vector_6" d="M70.4542 3.26494C70.5575 2.98571 70.735 2.77628 70.986 2.6362C71.2372 2.49658 71.5844 2.42655 72.0276 2.42655H73.1242C73.3362 2.42655 73.5081 2.25547 73.5081 2.04443V0.382111C73.5081 0.171077 73.3362 0 73.1242 0H71.7127C70.723 0 69.9141 0.154544 69.2861 0.463172C68.6581 0.77203 68.1891 1.27217 67.8788 1.96314C67.5687 2.65457 67.4134 3.56622 67.4134 4.69832V15.0587C67.4134 15.2698 67.5853 15.4408 67.7973 15.4408H69.9152C70.1273 15.4408 70.2992 15.2698 70.2992 15.0587V7.58597C70.2992 7.46518 70.3974 7.36736 70.5188 7.36736H73.0391C73.2511 7.36736 73.423 7.19628 73.423 6.98525V5.25197C73.423 5.04093 73.2511 4.86985 73.0391 4.86985H70.5188C70.3974 4.86985 70.2992 4.77203 70.2992 4.65124V4.36719C70.2992 3.91159 70.3506 3.54372 70.4542 3.26425V3.26494Z" fill="var(--fill-0, white)"/>
<path id="Vector_7" d="M78.0154 3.26494C78.1188 2.98571 78.2962 2.77628 78.5472 2.6362C78.7985 2.49658 79.1457 2.42655 79.5889 2.42655H80.6854C80.8975 2.42655 81.0694 2.25547 81.0694 2.04443V0.382111C81.0694 0.171077 80.8975 0 80.6854 0H79.274C78.2842 0 77.4753 0.154544 76.8473 0.463172C76.2193 0.77203 75.7503 1.27217 75.44 1.96314C75.1299 2.65457 74.9747 3.56622 74.9747 4.69832V15.0587C74.9747 15.2698 75.1465 15.4408 75.3586 15.4408H77.4765C77.6885 15.4408 77.8604 15.2698 77.8604 15.0587V7.58597C77.8604 7.46518 77.9587 7.36736 78.08 7.36736H80.6003C80.8123 7.36736 80.9842 7.19628 80.9842 6.98525V5.25197C80.9842 5.04093 80.8123 4.86985 80.6003 4.86985H78.08C77.9587 4.86985 77.8604 4.77203 77.8604 4.65124V4.36719C77.8604 3.91159 77.9118 3.54372 78.0154 3.26425V3.26494Z" fill="var(--fill-0, white)"/>
</g>
</svg>
