<svg width="20" height="20" viewBox="0 0 20 20" fill="none" xmlns="http://www.w3.org/2000/svg">
<path fill-rule="evenodd" clip-rule="evenodd" d="M9.99967 0.832031C4.93706 0.832031 0.833008 4.93609 0.833008 9.9987C0.833008 15.0613 4.93706 19.1654 9.99967 19.1654C15.0623 19.1654 19.1663 15.0613 19.1663 9.9987C19.1663 4.93609 15.0623 0.832031 9.99967 0.832031ZM14.3389 8.08795C14.6644 7.76252 14.6644 7.23488 14.3389 6.90944C14.0135 6.58401 13.4859 6.58401 13.1604 6.90944L8.74967 11.3202L6.83893 9.40944C6.51349 9.08401 5.98586 9.08401 5.66042 9.40944C5.33498 9.73488 5.33498 10.2625 5.66042 10.588L8.16042 13.088C8.48586 13.4134 9.01349 13.4134 9.33893 13.088L14.3389 8.08795Z" fill="#9FB1A5"/>
</svg>
