<svg preserveAspectRatio="none" width="100%" height="100%" overflow="visible" style="display: block;" viewBox="0 0 20 20" fill="none" xmlns="http://www.w3.org/2000/svg">
<path id="Vector" fill-rule="evenodd" clip-rule="evenodd" d="M10 0C4.47715 0 0 4.47715 0 10C0 11.3283 0.259521 12.5985 0.731556 13.7608C0.774193 13.8658 0.798718 13.9264 0.815524 13.9711L0.820633 13.9849L0.819998 13.9897C0.814996 14.0266 0.806721 14.0769 0.790714 14.173L0.19294 17.7596C0.166118 17.9202 0.136108 18.0999 0.124327 18.256C0.111482 18.4261 0.107009 18.6969 0.229729 18.983C0.381437 19.3367 0.663296 19.6186 1.017 19.7703C1.30312 19.893 1.57386 19.8885 1.74404 19.8757C1.90013 19.8639 2.07985 19.8339 2.24049 19.8071L5.82705 19.2093C5.92309 19.1933 5.97339 19.185 6.0103 19.18L6.01505 19.1794L6.02887 19.1845C6.07362 19.2013 6.13423 19.2258 6.23921 19.2684C7.4015 19.7405 8.67168 20 10 20C15.5228 20 20 15.5228 20 10C20 4.47715 15.5228 0 10 0ZM6 6.5C5.44772 6.5 5 6.94772 5 7.5C5 8.05229 5.44772 8.5 6 8.5H10C10.5523 8.5 11 8.05229 11 7.5C11 6.94772 10.5523 6.5 10 6.5H6ZM6 10C5.44772 10 5 10.4477 5 11C5 11.5523 5.44772 12 6 12H13C13.5523 12 14 11.5523 14 11C14 10.4477 13.5523 10 13 10H6Z" fill="var(--fill-0, #4E6D5D)"/>
</svg>
