<svg preserveAspectRatio="none" width="100%" height="100%" overflow="visible" style="display: block;" viewBox="0 0 22 22" fill="none" xmlns="http://www.w3.org/2000/svg">
<g id="Vector">
<path d="M6.39443 0.552786C6.22503 0.214002 5.87877 0 5.5 0C5.12123 0 4.77496 0.214002 4.60557 0.552787L3.82111 2.1217C3.53863 2.68667 3.45255 2.84925 3.34796 2.98494C3.24305 3.12104 3.12104 3.24305 2.98494 3.34796C2.84925 3.45255 2.68667 3.53863 2.1217 3.82111L0.552786 4.60557C0.214002 4.77496 0 5.12123 0 5.5C0 5.87877 0.214002 6.22504 0.552786 6.39443L2.1217 7.17889C2.68667 7.46137 2.84925 7.54745 2.98494 7.65204C3.12104 7.75695 3.24305 7.87896 3.34796 8.01506C3.45255 8.15075 3.53863 8.31333 3.82111 8.8783L4.60557 10.4472C4.77497 10.786 5.12123 11 5.5 11C5.87877 11 6.22504 10.786 6.39443 10.4472L7.17889 8.8783C7.46137 8.31333 7.54745 8.15075 7.65204 8.01506C7.75695 7.87896 7.87896 7.75695 8.01506 7.65204C8.15075 7.54745 8.31333 7.46137 8.8783 7.17889L10.4472 6.39443C10.786 6.22504 11 5.87877 11 5.5C11 5.12123 10.786 4.77496 10.4472 4.60557L8.8783 3.82111C8.31333 3.53863 8.15075 3.45255 8.01506 3.34796C7.87896 3.24305 7.75695 3.12104 7.65204 2.98494C7.54745 2.84925 7.46137 2.68667 7.17889 2.1217L6.39443 0.552786Z" fill="var(--fill-0, #4E6D5D)"/>
<path d="M18.5 2C18.5 1.44772 18.0523 1 17.5 1C16.9477 1 16.5 1.44772 16.5 2V3.5H15C14.4477 3.5 14 3.94772 14 4.5C14 5.05228 14.4477 5.5 15 5.5H16.5V7C16.5 7.55228 16.9477 8 17.5 8C18.0523 8 18.5 7.55228 18.5 7V5.5H20C20.5523 5.5 21 5.05228 21 4.5C21 3.94772 20.5523 3.5 20 3.5H18.5V2Z" fill="var(--fill-0, #4E6D5D)"/>
<path d="M5.5 15C5.5 14.4477 5.05228 14 4.5 14C3.94772 14 3.5 14.4477 3.5 15V16.5H2C1.44772 16.5 1 16.9477 1 17.5C1 18.0523 1.44772 18.5 2 18.5H3.5V20C3.5 20.5523 3.94772 21 4.5 21C5.05228 21 5.5 20.5523 5.5 20V18.5H7C7.55228 18.5 8 18.0523 8 17.5C8 16.9477 7.55228 16.5 7 16.5H5.5V15Z" fill="var(--fill-0, #4E6D5D)"/>
<path d="M16.8944 10.5528C16.725 10.214 16.3788 10 16 10C15.6212 10 15.275 10.214 15.1056 10.5528L14.1544 12.455C13.872 13.02 13.7859 13.1826 13.6813 13.3183C13.5764 13.4544 13.4544 13.5764 13.3183 13.6813C13.1826 13.7859 13.02 13.872 12.455 14.1544L10.5528 15.1056C10.214 15.275 10 15.6212 10 16C10 16.3788 10.214 16.725 10.5528 16.8944L12.455 17.8456C13.02 18.128 13.1826 18.2141 13.3183 18.3187C13.4544 18.4236 13.5764 18.5456 13.6813 18.6817C13.7859 18.8174 13.872 18.98 14.1544 19.545L15.1056 21.4472C15.275 21.786 15.6212 22 16 22C16.3788 22 16.725 21.786 16.8944 21.4472L17.8456 19.545C18.128 18.98 18.2141 18.8174 18.3187 18.6817C18.4236 18.5456 18.5456 18.4236 18.6817 18.3187C18.8174 18.2141 18.98 18.128 19.545 17.8456L21.4472 16.8944C21.786 16.725 22 16.3788 22 16C22 15.6212 21.786 15.275 21.4472 15.1056L19.545 14.1544C18.98 13.872 18.8174 13.7859 18.6817 13.6813C18.5456 13.5764 18.4236 13.4544 18.3187 13.3183C18.2141 13.1826 18.128 13.02 17.8456 12.455L16.8944 10.5528Z" fill="var(--fill-0, #4E6D5D)"/>
</g>
</svg>
